<svg width="185" height="157" viewBox="0 0 185 157" fill="none" xmlns="http://www.w3.org/2000/svg">
<path d="M61.2282 105.849V105.029H57V105.849H58.6575V111.05H59.5708V105.849H61.2282Z" fill="#333333"/>
<path d="M66.8735 111.05V105.029H65.9602V107.599H63.5163V105.029H62.603V111.05H63.5163V108.42H65.9602V111.05H66.8735Z" fill="#333333"/>
<path d="M72.6358 111.05V110.229H69.7014V108.42H72.2045V107.608H69.7014V105.849H72.6358V105.029H68.7881V111.05H72.6358Z" fill="#333333"/>
<path d="M80.7351 108.716V107.794H78.5364V108.572H79.8218V108.91C79.8218 109.107 79.7993 109.282 79.7542 109.434C79.7091 109.587 79.6301 109.727 79.5174 109.857C79.399 109.992 79.2552 110.097 79.0861 110.17C78.917 110.243 78.7338 110.28 78.5364 110.28C78.356 110.28 78.1897 110.249 78.0375 110.187C77.8853 110.119 77.7556 110.029 77.6485 109.916C77.5752 109.837 77.5132 109.753 77.4625 109.663C77.4174 109.567 77.3807 109.451 77.3525 109.316C77.33 109.175 77.3131 109.003 77.3018 108.8C77.2905 108.597 77.2849 108.343 77.2849 108.039C77.2849 107.735 77.2905 107.484 77.3018 107.286C77.3131 107.083 77.33 106.914 77.3525 106.779C77.3807 106.638 77.4174 106.522 77.4625 106.432C77.5132 106.336 77.5752 106.249 77.6485 106.17C77.7556 106.057 77.8853 105.967 78.0375 105.9C78.1897 105.832 78.356 105.798 78.5364 105.798C78.8747 105.798 79.1509 105.891 79.3652 106.077C79.5794 106.258 79.726 106.514 79.8049 106.847H80.7267C80.6816 106.587 80.6026 106.345 80.4899 106.119C80.3771 105.894 80.2277 105.697 80.0417 105.527C79.8613 105.358 79.6442 105.226 79.3905 105.13C79.1425 105.029 78.8578 104.978 78.5364 104.978C78.2151 104.978 77.9219 105.034 77.657 105.147C77.3976 105.254 77.1637 105.412 76.9551 105.62C76.8085 105.767 76.6958 105.922 76.6168 106.086C76.5379 106.249 76.4787 106.427 76.4392 106.618C76.4054 106.81 76.3857 107.024 76.38 107.261C76.3744 107.492 76.3716 107.751 76.3716 108.039C76.3716 108.327 76.3744 108.589 76.38 108.825C76.3857 109.057 76.4054 109.268 76.4392 109.46C76.4787 109.651 76.5379 109.829 76.6168 109.992C76.6958 110.156 76.8085 110.311 76.9551 110.458C77.1637 110.666 77.4005 110.827 77.6654 110.94C77.9304 111.047 78.2207 111.1 78.5364 111.1C78.8578 111.1 79.1566 111.047 79.4328 110.94C79.7091 110.832 79.9628 110.658 80.1939 110.415C80.3912 110.201 80.5293 109.961 80.6083 109.696C80.6928 109.432 80.7351 109.105 80.7351 108.716Z" fill="#333333"/>
<path d="M86.2353 111.05V110.229H83.3347V105.029H82.4214V111.05H86.2353Z" fill="#333333"/>
<path d="M92.0467 111.05L89.8396 105.029H89.1039L86.8968 111.05H87.8692L88.2836 109.84H90.6599L91.0742 111.05H92.0467ZM90.4062 109.062H88.5542L89.4929 106.39L90.4062 109.062Z" fill="#333333"/>
<path d="M97.0022 109.333C97.0022 109.074 96.9599 108.84 96.8754 108.631C96.7964 108.422 96.6752 108.245 96.5117 108.098C96.3821 107.985 96.2327 107.895 96.0635 107.828C95.8944 107.754 95.6689 107.695 95.387 107.65L94.702 107.549C94.4089 107.503 94.1834 107.41 94.0255 107.269C93.9466 107.196 93.8874 107.114 93.8479 107.024C93.8141 106.928 93.7972 106.824 93.7972 106.711C93.7972 106.441 93.8902 106.218 94.0763 106.043C94.2679 105.863 94.5414 105.773 94.8965 105.773C95.1502 105.773 95.3842 105.807 95.5984 105.874C95.8183 105.936 96.0213 106.057 96.2073 106.238L96.7908 105.663C96.5315 105.42 96.2552 105.246 95.9621 105.138C95.6689 105.031 95.3222 104.978 94.9219 104.978C94.6062 104.978 94.3243 105.02 94.0763 105.105C93.8282 105.189 93.6168 105.31 93.442 105.468C93.2729 105.626 93.1404 105.815 93.0446 106.035C92.9544 106.249 92.9093 106.486 92.9093 106.745C92.9093 107.236 93.0559 107.619 93.349 107.895C93.6196 108.149 94.0002 108.31 94.4906 108.377L95.201 108.479C95.3814 108.507 95.5167 108.538 95.6069 108.572C95.6971 108.606 95.7817 108.659 95.8606 108.732C96.0184 108.873 96.0974 109.082 96.0974 109.358C96.0974 109.651 95.9874 109.88 95.7676 110.043C95.5533 110.201 95.2489 110.28 94.8543 110.28C94.5442 110.28 94.2651 110.241 94.0171 110.162C93.769 110.077 93.5351 109.925 93.3152 109.705L92.7063 110.305C92.9938 110.598 93.3067 110.804 93.645 110.923C93.9832 111.041 94.3807 111.1 94.8373 111.1C95.1531 111.1 95.4434 111.061 95.7084 110.982C95.9733 110.903 96.2017 110.787 96.3933 110.635C96.585 110.483 96.7344 110.297 96.8415 110.077C96.9486 109.857 97.0022 109.609 97.0022 109.333Z" fill="#333333"/>
<path d="M102.246 109.333C102.246 109.074 102.204 108.84 102.119 108.631C102.04 108.422 101.919 108.245 101.755 108.098C101.626 107.985 101.476 107.895 101.307 107.828C101.138 107.754 100.913 107.695 100.631 107.65L99.9457 107.549C99.6525 107.503 99.427 107.41 99.2692 107.269C99.1903 107.196 99.1311 107.114 99.0916 107.024C99.0578 106.928 99.0409 106.824 99.0409 106.711C99.0409 106.441 99.1339 106.218 99.3199 106.043C99.5116 105.863 99.785 105.773 100.14 105.773C100.394 105.773 100.628 105.807 100.842 105.874C101.062 105.936 101.265 106.057 101.451 106.238L102.034 105.663C101.775 105.42 101.499 105.246 101.206 105.138C100.913 105.031 100.566 104.978 100.166 104.978C99.8499 104.978 99.568 105.02 99.3199 105.105C99.0719 105.189 98.8605 105.31 98.6857 105.468C98.5166 105.626 98.3841 105.815 98.2882 106.035C98.198 106.249 98.1529 106.486 98.1529 106.745C98.1529 107.236 98.2995 107.619 98.5927 107.895C98.8633 108.149 99.2438 108.31 99.7343 108.377L100.445 108.479C100.625 108.507 100.76 108.538 100.851 108.572C100.941 108.606 101.025 108.659 101.104 108.732C101.262 108.873 101.341 109.082 101.341 109.358C101.341 109.651 101.231 109.88 101.011 110.043C100.797 110.201 100.493 110.28 100.098 110.28C99.7878 110.28 99.5088 110.241 99.2607 110.162C99.0127 110.077 98.7787 109.925 98.5588 109.705L97.95 110.305C98.2375 110.598 98.5504 110.804 98.8886 110.923C99.2269 111.041 99.6243 111.1 100.081 111.1C100.397 111.1 100.687 111.061 100.952 110.982C101.217 110.903 101.445 110.787 101.637 110.635C101.829 110.483 101.978 110.297 102.085 110.077C102.192 109.857 102.246 109.609 102.246 109.333Z" fill="#333333"/>
<path d="M110.449 111.05V105.029H109.536V107.599H107.092V105.029H106.179V111.05H107.092V108.42H109.536V111.05H110.449Z" fill="#333333"/>
<path d="M116.592 109.02V105.029H115.679V108.978C115.679 109.384 115.563 109.702 115.332 109.933C115.107 110.164 114.805 110.28 114.427 110.28C114.049 110.28 113.748 110.164 113.522 109.933C113.297 109.702 113.184 109.384 113.184 108.978V105.029H112.271V109.02C112.271 109.33 112.324 109.615 112.431 109.874C112.544 110.128 112.696 110.345 112.888 110.525C113.08 110.706 113.308 110.847 113.573 110.948C113.838 111.05 114.123 111.1 114.427 111.1C114.732 111.1 115.016 111.05 115.281 110.948C115.546 110.847 115.775 110.706 115.966 110.525C116.164 110.345 116.316 110.128 116.423 109.874C116.536 109.615 116.592 109.33 116.592 109.02Z" fill="#333333"/>
<path d="M122.104 105.849V105.029H117.876V105.849H119.533V111.05H120.447V105.849H122.104Z" fill="#333333"/>
<path d="M127.242 109.333C127.242 109.074 127.2 108.84 127.115 108.631C127.036 108.422 126.915 108.245 126.751 108.098C126.622 107.985 126.472 107.895 126.303 107.828C126.134 107.754 125.909 107.695 125.627 107.65L124.942 107.549C124.649 107.503 124.423 107.41 124.265 107.269C124.186 107.196 124.127 107.114 124.088 107.024C124.054 106.928 124.037 106.824 124.037 106.711C124.037 106.441 124.13 106.218 124.316 106.043C124.508 105.863 124.781 105.773 125.136 105.773C125.39 105.773 125.624 105.807 125.838 105.874C126.058 105.936 126.261 106.057 126.447 106.238L127.03 105.663C126.771 105.42 126.495 105.246 126.202 105.138C125.909 105.031 125.562 104.978 125.162 104.978C124.846 104.978 124.564 105.02 124.316 105.105C124.068 105.189 123.856 105.31 123.682 105.468C123.513 105.626 123.38 105.815 123.284 106.035C123.194 106.249 123.149 106.486 123.149 106.745C123.149 107.236 123.296 107.619 123.589 107.895C123.859 108.149 124.24 108.31 124.73 108.377L125.441 108.479C125.621 108.507 125.756 108.538 125.847 108.572C125.937 108.606 126.021 108.659 126.1 108.732C126.258 108.873 126.337 109.082 126.337 109.358C126.337 109.651 126.227 109.88 126.007 110.043C125.793 110.201 125.489 110.28 125.094 110.28C124.784 110.28 124.505 110.241 124.257 110.162C124.009 110.077 123.775 109.925 123.555 109.705L122.946 110.305C123.234 110.598 123.546 110.804 123.885 110.923C124.223 111.041 124.62 111.1 125.077 111.1C125.393 111.1 125.683 111.061 125.948 110.982C126.213 110.903 126.441 110.787 126.633 110.635C126.825 110.483 126.974 110.297 127.081 110.077C127.188 109.857 127.242 109.609 127.242 109.333Z" fill="#333333"/>
<path fill-rule="evenodd" clip-rule="evenodd" d="M94.7281 91.1436L126.479 95.9608V67.4259L94.0484 51.0208L73.895 46.8395L57.7872 59.8923V95.1202L94.7281 91.1436ZM57.0066 95.9893V59.5202L73.6911 46L94.3084 50.2775L127.26 66.946V96.8687L94.711 91.9305L57.0066 95.9893Z" fill="#333333"/>
<path fill-rule="evenodd" clip-rule="evenodd" d="M123.69 70.2088L117.185 76.9739L116.623 76.4329L123.128 69.6677L123.69 70.2088Z" fill="#333333"/>
<path fill-rule="evenodd" clip-rule="evenodd" d="M105.694 78.7363L111.418 83.1597L110.941 83.7774L105.217 79.354L105.694 78.7363Z" fill="#333333"/>
<path fill-rule="evenodd" clip-rule="evenodd" d="M116.388 95.1775L116.388 54.1963L117.169 54.1963L117.169 95.1775L116.388 95.1775Z" fill="#333333"/>
<path fill-rule="evenodd" clip-rule="evenodd" d="M110.713 72.8202L110.713 47.0408L111.494 47.0408L111.494 72.8202L110.713 72.8202Z" fill="#333333"/>
<path fill-rule="evenodd" clip-rule="evenodd" d="M110.713 100.902L110.713 70.0684L111.494 70.0684L111.494 100.902L110.713 100.902Z" fill="#333333"/>
<path fill-rule="evenodd" clip-rule="evenodd" d="M124.45 73.9713H120.027V73.1907H124.45V73.9713Z" fill="#333333"/>
<path fill-rule="evenodd" clip-rule="evenodd" d="M73.3989 93.7465V46.5205H74.1795V93.7465H73.3989Z" fill="#333333"/>
<path fill-rule="evenodd" clip-rule="evenodd" d="M93.9546 91.6648V50.6836H94.7352V91.6648H93.9546Z" fill="#333333"/>
</svg>
